<?xml version="1.0" standalone="no"?><!DOCTYPE svg PUBLIC "-//W3C//DTD SVG 1.1//EN" "http://www.w3.org/Graphics/SVG/1.1/DTD/svg11.dtd"><svg height="1024" node-id="1" sillyvg="true" template-height="1024" template-width="1024" version="1.1" viewBox="0 0 1024 1024" width="1024" xmlns="http://www.w3.org/2000/svg" xmlns:xlink="http://www.w3.org/1999/xlink"><defs node-id="224"></defs><g node-id="744"><path d="M 262.04 808.98 L 278.67 808.98 L 278.67 820.08 L 262.04 820.08 Z" fill="#292a2e" fill-opacity="0.05" fill-rule="nonzero" group-id="1" node-id="228" stroke="none" target-height="11.099976" target-width="16.630005" target-x="262.04" target-y="808.98"></path></g><g node-id="745"><path d="M 92.05 808.98 L 108.68 808.98 L 108.68 820.08 L 92.05 820.08 Z" fill="#292a2e" fill-opacity="0.05" fill-rule="nonzero" group-id="2" node-id="233" stroke="none" target-height="11.099976" target-width="16.629997" target-x="92.05" target-y="808.98"></path></g><path d="M 76.81 585.27 L 293.90 585.27 L 293.90 808.61 L 76.81 808.61 Z" fill="#f4f4f4" fill-rule="nonzero" node-id="236" stroke="none" target-height="223.33997" target-width="217.09" target-x="76.81" target-y="585.27"></path><g node-id="746"><path d="M 76.81 585.27 L 293.90 585.27 L 293.90 808.61 L 76.81 808.61 Z" fill="#292a2e" fill-opacity="0.03" fill-rule="nonzero" group-id="3" node-id="240" stroke="none" target-height="223.33997" target-width="217.09" target-x="76.81" target-y="585.27"></path></g><path d="M 117.04 585.27 L 334.13 585.27 L 334.13 808.61 L 117.04 808.61 Z" fill="#f4f4f4" fill-rule="nonzero" node-id="243" stroke="none" target-height="223.33997" target-width="217.09" target-x="117.04001" target-y="585.27"></path><g node-id="747"><path d="M 302.27 808.98 L 318.90 808.98 L 318.90 820.08 L 302.27 820.08 Z" fill="#292a2e" fill-opacity="0.05" fill-rule="nonzero" group-id="4" node-id="247" stroke="none" target-height="11.099976" target-width="16.630005" target-x="302.27" target-y="808.98"></path></g><g node-id="748"><path d="M 132.28 808.98 L 148.91 808.98 L 148.91 820.08 L 132.28 820.08 Z" fill="#292a2e" fill-opacity="0.05" fill-rule="nonzero" group-id="5" node-id="252" stroke="none" target-height="11.099976" target-width="16.630005" target-x="132.28" target-y="808.98"></path></g><g node-id="749"><path d="M 125.19 595.73 L 325.99 595.73 L 325.99 638.64 L 125.19 638.64 Z" fill="#ffffff" fill-opacity="0.7" fill-rule="nonzero" group-id="6" node-id="257" stroke="none" target-height="42.909973" target-width="200.79999" target-x="125.19" target-y="595.73"></path></g><g node-id="750"><path d="M 125.19 649.14 L 325.99 649.14 L 325.99 692.05 L 125.19 692.05 Z" fill="#ffffff" fill-opacity="0.7" fill-rule="nonzero" group-id="7" node-id="262" stroke="none" target-height="42.909973" target-width="200.79999" target-x="125.19" target-y="649.14"></path></g><g node-id="751"><path d="M 125.19 702.54 L 325.99 702.54 L 325.99 745.45 L 125.19 745.45 Z" fill="#ffffff" fill-opacity="0.7" fill-rule="nonzero" group-id="8" node-id="267" stroke="none" target-height="42.910034" target-width="200.79999" target-x="125.19" target-y="702.5399"></path></g><g node-id="752"><path d="M 231.59 617.18 C 231.59 620.49 228.90 623.18 225.59 623.18 C 222.28 623.18 219.59 620.49 219.59 617.18 C 219.59 613.87 222.28 611.18 225.59 611.18 C 228.90 611.18 231.59 613.87 231.59 617.18 Z" fill="#292a2e" fill-opacity="0.05" fill-rule="nonzero" group-id="9" node-id="272" stroke="none" target-height="12" target-width="12" target-x="219.59" target-y="611.18"></path></g><g node-id="753"><path d="M 231.59 670.59 C 231.59 673.90 228.90 676.59 225.59 676.59 C 222.28 676.59 219.59 673.90 219.59 670.59 C 219.59 667.28 222.28 664.59 225.59 664.59 C 228.90 664.59 231.59 667.28 231.59 670.59 Z" fill="#292a2e" fill-opacity="0.05" fill-rule="nonzero" group-id="10" node-id="277" stroke="none" target-height="12" target-width="12" target-x="219.59" target-y="664.59"></path></g><g node-id="754"><path d="M 231.59 724.00 C 231.59 727.31 228.90 730.00 225.59 730.00 C 222.28 730.00 219.59 727.31 219.59 724.00 C 219.59 720.69 222.28 718.00 225.59 718.00 C 228.90 718.00 231.59 720.69 231.59 724.00 Z" fill="#292a2e" fill-opacity="0.05" fill-rule="nonzero" group-id="11" node-id="282" stroke="none" target-height="12" target-width="12" target-x="219.59" target-y="718"></path></g><g node-id="755"><path d="M 125.19 757.16 L 325.99 757.16 L 325.99 800.07 L 125.19 800.07 Z" fill="#ffffff" fill-opacity="0.7" fill-rule="nonzero" group-id="12" node-id="287" stroke="none" target-height="42.910034" target-width="200.79999" target-x="125.19" target-y="757.1599"></path></g><g node-id="756"><path d="M 231.59 778.61 C 231.59 781.92 228.90 784.61 225.59 784.61 C 222.28 784.61 219.59 781.92 219.59 778.61 C 219.59 775.30 222.28 772.61 225.59 772.61 C 228.90 772.61 231.59 775.30 231.59 778.61 Z" fill="#292a2e" fill-opacity="0.05" fill-rule="nonzero" group-id="13" node-id="292" stroke="none" target-height="12.000061" target-width="12" target-x="219.59" target-y="772.61"></path></g><path d="M 675.58 194.44 L 798.13 194.44 L 798.13 353.95 L 675.58 353.95 Z" fill="#f4f4f4" fill-rule="nonzero" node-id="295" stroke="none" target-height="159.51001" target-width="122.54999" target-x="675.58" target-y="194.44"></path><path d="M 798.13 194.44 L 802.10 194.44 L 802.10 353.95 L 798.13 353.95 Z" fill="#f4f4f4" fill-rule="nonzero" node-id="297" stroke="none" target-height="159.51001" target-width="3.9699097" target-x="798.13" target-y="194.44"></path><g node-id="757"><path d="M 798.13 194.44 L 802.10 194.44 L 802.10 353.95 L 798.13 353.95 Z" fill="#292a2e" fill-opacity="0.05" fill-rule="nonzero" group-id="14" node-id="301" stroke="none" target-height="159.51001" target-width="3.9699097" target-x="798.13" target-y="194.44"></path></g><g node-id="758"><path d="M 697.90 223.50 L 775.80 223.50 L 775.80 324.90 L 697.90 324.90 Z" fill="#292a2e" fill-opacity="0.05" fill-rule="nonzero" group-id="15" node-id="306" stroke="none" target-height="101.399994" target-width="77.900024" target-x="697.89996" target-y="223.5"></path></g><g node-id="759"><path d="M 771.74 223.50 L 775.80 223.50 L 775.80 324.90 L 771.74 324.90 Z" fill="#292a2e" fill-opacity="0.03" fill-rule="nonzero" group-id="16" node-id="311" stroke="none" target-height="101.399994" target-width="4.0599976" target-x="771.74" target-y="223.5"></path></g><path d="M 798.13 393.18 L 898.35 393.18 L 898.35 494.32 L 798.13 494.32 Z" fill="#f4f4f4" fill-rule="nonzero" node-id="314" stroke="none" target-height="101.140045" target-width="100.21997" target-x="798.13" target-y="393.18"></path><g node-id="760"><path d="M 816.39 411.60 L 880.10 411.60 L 880.10 475.89 L 816.39 475.89 Z" fill="#292a2e" fill-opacity="0.05" fill-rule="nonzero" group-id="17" node-id="318" stroke="none" target-height="64.29004" target-width="63.710083" target-x="816.38995" target-y="411.6"></path></g><path d="M 898.35 393.18 L 902.33 393.18 L 902.33 494.32 L 898.35 494.32 Z" fill="#f4f4f4" fill-rule="nonzero" node-id="321" stroke="none" target-height="101.140045" target-width="3.9799805" target-x="898.35" target-y="393.18"></path><g node-id="761"><path d="M 898.35 393.18 L 902.33 393.18 L 902.33 494.32 L 898.35 494.32 Z" fill="#292a2e" fill-opacity="0.05" fill-rule="nonzero" group-id="18" node-id="325" stroke="none" target-height="101.140045" target-width="3.9799805" target-x="898.35" target-y="393.18"></path></g><g node-id="762"><path d="M 876.04 411.60 L 880.10 411.60 L 880.10 475.89 L 876.04 475.89 Z" fill="#292a2e" fill-opacity="0.03" fill-rule="nonzero" group-id="19" node-id="330" stroke="none" target-height="64.29004" target-width="4.0600586" target-x="876.0399" target-y="411.6"></path></g><g node-id="763"><path d="M 59.88 184.87 L 399.21 184.87 L 399.21 524.20 L 59.88 524.20 Z" fill="#f4f4f4" fill-rule="nonzero" group-id="20" node-id="334" stroke="none" target-height="339.32996" target-width="339.33" target-x="59.88" target-y="184.87"></path></g><g node-id="764"><path d="M 55.99 184.87 L 59.88 184.87 L 59.88 524.20 L 55.99 524.20 Z" fill="#f4f4f4" fill-rule="nonzero" group-id="21" node-id="338" stroke="none" target-height="339.32996" target-width="3.8899994" target-x="55.99" target-y="184.87"></path></g><g node-id="765"><path d="M 55.99 184.87 L 59.88 184.87 L 59.88 524.20 L 55.99 524.20 Z" fill="#292a2e" fill-opacity="0.05" fill-rule="nonzero" group-id="22" node-id="342" stroke="none" target-height="339.32996" target-width="3.8899994" target-x="55.99" target-y="184.87"></path></g><g node-id="766"><path d="M 142.08 418.70 L 142.08 329.92 L 214.81 329.92 L 214.81 381.50 L 327.46 381.50 L 327.46 472.83 L 375.33 472.83 L 375.33 524.21 L 327.46 524.21 L 318.23 524.21 L 76.20 524.21 L 76.20 418.70 L 142.08 418.70 Z" fill="#292a2e" fill-opacity="0.05" fill-rule="nonzero" group-id="23" node-id="346" stroke="none" target-height="194.29001" target-width="299.13" target-x="76.2" target-y="329.92"></path></g><g node-id="767"><g node-id="804"><path d="M 152.51 339.56 L 205.47 339.56 L 205.47 349.20 L 152.51 349.20 Z" fill="#fffffa" fill-opacity="0.34" fill-rule="nonzero" group-id="24,61" node-id="351" stroke="none" target-height="9.640015" target-width="52.960007" target-x="152.51" target-y="339.56"></path></g><g node-id="805"><path d="M 152.51 359.54 L 205.47 359.54 L 205.47 369.18 L 152.51 369.18 Z" fill="#fffffa" fill-opacity="0.34" fill-rule="nonzero" group-id="24,62" node-id="355" stroke="none" target-height="9.640015" target-width="52.960007" target-x="152.51" target-y="359.54"></path></g><path d="M 152.51 379.51 L 205.47 379.51 L 205.47 389.15 L 152.51 389.15 Z" fill="#fffffa" fill-opacity="0.34" fill-rule="nonzero" group-id="24,63" node-id="359" stroke="none" target-height="9.640015" target-width="52.960007" target-x="152.51" target-y="379.51"></path></g><g node-id="768"><g node-id="807"><path d="M 85.59 428.06 L 95.35 428.06 L 95.35 437.70 L 85.59 437.70 Z" fill="#fffffa" fill-opacity="0.34" fill-rule="nonzero" group-id="25,64" node-id="365" stroke="none" target-height="9.639954" target-width="9.760002" target-x="85.59" target-y="428.06003"></path></g><g node-id="808"><path d="M 85.59 448.03 L 95.35 448.03 L 95.35 457.67 L 85.59 457.67 Z" fill="#fffffa" fill-opacity="0.34" fill-rule="nonzero" group-id="25,65" node-id="369" stroke="none" target-height="9.640045" target-width="9.760002" target-x="85.59" target-y="448.02997"></path></g><g node-id="809"><path d="M 85.59 468.01 L 95.35 468.01 L 95.35 477.65 L 85.59 477.65 Z" fill="#fffffa" fill-opacity="0.34" fill-rule="nonzero" group-id="25,66" node-id="373" stroke="none" target-height="9.640045" target-width="9.760002" target-x="85.59" target-y="468.01"></path></g><g node-id="810"><path d="M 103.65 428.06 L 113.41 428.06 L 113.41 437.70 L 103.65 437.70 Z" fill="#fffffa" fill-opacity="0.34" fill-rule="nonzero" group-id="25,67" node-id="377" stroke="none" target-height="9.639954" target-width="9.76001" target-x="103.649994" target-y="428.06003"></path></g><g node-id="811"><path d="M 103.65 448.03 L 113.41 448.03 L 113.41 457.67 L 103.65 457.67 Z" fill="#fffffa" fill-opacity="0.34" fill-rule="nonzero" group-id="25,68" node-id="381" stroke="none" target-height="9.640045" target-width="9.76001" target-x="103.649994" target-y="448.02997"></path></g><g node-id="812"><path d="M 103.65 468.01 L 113.41 468.01 L 113.41 477.65 L 103.65 477.65 Z" fill="#fffffa" fill-opacity="0.34" fill-rule="nonzero" group-id="25,69" node-id="385" stroke="none" target-height="9.640045" target-width="9.76001" target-x="103.649994" target-y="468.01"></path></g><g node-id="813"><path d="M 121.22 428.06 L 130.98 428.06 L 130.98 437.70 L 121.22 437.70 Z" fill="#fffffa" fill-opacity="0.34" fill-rule="nonzero" group-id="25,70" node-id="389" stroke="none" target-height="9.639954" target-width="9.7599945" target-x="121.22" target-y="428.06003"></path></g><g node-id="814"><path d="M 121.22 448.03 L 130.98 448.03 L 130.98 457.67 L 121.22 457.67 Z" fill="#fffffa" fill-opacity="0.34" fill-rule="nonzero" group-id="25,71" node-id="393" stroke="none" target-height="9.640045" target-width="9.7599945" target-x="121.22" target-y="448.02997"></path></g><path d="M 121.22 468.01 L 130.98 468.01 L 130.98 477.65 L 121.22 477.65 Z" fill="#fffffa" fill-opacity="0.34" fill-rule="nonzero" group-id="25,72" node-id="397" stroke="none" target-height="9.640045" target-width="9.7599945" target-x="121.22" target-y="468.01"></path></g><path d="M 59.88 352.64 L 128.16 352.64 L 128.16 184.87 L 133.80 184.87 L 133.80 352.64 L 318.23 352.64 L 318.23 184.87 L 323.88 184.87 L 323.88 352.64 L 399.21 352.64 L 399.21 358.28 L 323.88 358.28 L 323.88 524.21 L 318.23 524.21 L 318.23 358.28 L 133.80 358.28 L 133.80 524.21 L 128.16 524.21 L 128.16 358.28 L 59.88 358.28 L 59.88 352.64 Z" fill="#ffffff" fill-rule="nonzero" node-id="401" stroke="none" target-height="339.34003" target-width="339.33" target-x="59.88" target-y="184.87"></path><g node-id="769"><path d="M 46.36 523.80 L 412.73 523.80 L 412.73 535.08 L 46.36 535.08 Z" fill="#f4f4f4" fill-rule="nonzero" group-id="26" node-id="404" stroke="none" target-height="11.280029" target-width="366.37" target-x="46.360004" target-y="523.8"></path></g><g node-id="770"><path d="M 46.36 523.80 L 412.73 523.80 L 412.73 535.08 L 46.36 535.08 Z" fill="#292a2e" fill-opacity="0.1" fill-rule="nonzero" group-id="27" node-id="408" stroke="none" target-height="11.280029" target-width="366.37" target-x="46.360004" target-y="523.8"></path></g><g node-id="771"><path d="M 41.07 523.80 L 46.36 523.80 L 46.36 535.08 L 41.07 535.08 Z" fill="#292a2e" fill-opacity="0.1" fill-rule="nonzero" group-id="28" node-id="412" stroke="none" target-height="11.280029" target-width="5.2900047" target-x="41.07" target-y="523.8"></path></g><g node-id="772"><path d="M 41.07 523.80 L 46.36 523.80 L 46.36 535.08 L 41.07 535.08 Z" fill="#292a2e" fill-opacity="0.1" fill-rule="nonzero" group-id="29" node-id="416" stroke="none" target-height="11.280029" target-width="5.2900047" target-x="41.07" target-y="523.8"></path></g><path d="M 199.35 240.72 L 826.44 240.72 C 859.67 240.72 886.60 267.65 886.60 300.88 L 886.60 702.48 C 886.60 735.71 859.67 762.64 826.44 762.64 L 199.35 762.64 C 166.12 762.64 139.19 735.71 139.19 702.48 L 139.19 300.88 C 139.19 267.65 166.12 240.72 199.35 240.72 Z" fill="#203c79" fill-rule="nonzero" node-id="419" stroke="none" target-height="521.9199" target-width="747.41003" target-x="139.19" target-y="240.72"></path><path d="M 866.41 301.06 L 866.41 702.30 C 866.40 725.11 847.91 743.60 825.10 743.60 L 199.28 743.60 C 176.48 743.58 158.01 725.10 158.00 702.30 L 158.00 600.77 L 170.74 600.77 C 176.62 600.77 182.26 598.44 186.42 594.28 C 190.58 590.12 192.92 584.48 192.92 578.60 L 192.92 424.76 C 192.92 412.51 182.99 402.58 170.74 402.58 L 158.00 402.58 L 158.00 301.06 C 158.01 278.25 176.50 259.76 199.31 259.75 L 825.10 259.75 C 847.91 259.76 866.40 278.25 866.41 301.06 Z" fill="#ffffff" fill-rule="nonzero" node-id="421" stroke="none" target-height="483.84998" target-width="708.41003" target-x="158" target-y="259.75"></path><path d="M 150.20 600.77 L 150.20 402.58 L 170.71 402.58 C 182.96 402.59 192.88 412.51 192.89 424.76 L 192.89 578.60 C 192.88 590.85 182.96 600.77 170.71 600.77 Z" fill="#203c79" fill-rule="nonzero" node-id="423" stroke="none" target-height="198.19003" target-width="42.690002" target-x="150.2" target-y="402.58"></path><path d="M 914.85 771.92 C 914.63 771.92 914.42 771.84 914.26 771.68 C 913.10 770.52 911.26 749.22 906.11 685.82 C 904.03 659.89 902.06 635.39 900.62 620.51 C 900.52 619.44 900.11 619.32 899.97 619.28 C 897.97 618.68 891.97 623.40 888.68 627.53 C 888.55 627.70 888.35 627.81 888.13 627.84 C 887.91 627.86 887.70 627.79 887.53 627.65 C 887.36 627.52 887.25 627.32 887.22 627.10 C 887.20 626.89 887.26 626.67 887.40 626.50 C 889.61 623.76 896.81 616.61 900.45 617.70 C 901.57 618.09 902.31 619.16 902.26 620.35 C 903.70 635.25 905.67 659.75 907.76 685.69 C 910.85 724.22 914.36 767.87 915.51 770.61 C 915.70 770.86 915.72 771.19 915.58 771.47 C 915.45 771.75 915.16 771.92 914.85 771.92 Z" fill="#494949" fill-rule="nonzero" node-id="425" stroke="none" target-height="155.31287" target-width="28.525696" target-x="887.19885" target-y="616.61"></path><g node-id="773"><path d="M 908.62 609.64 C 916.70 619.72 912.17 636.78 898.51 647.73 C 884.84 658.69 867.21 659.41 859.13 649.33 C 851.05 639.25 855.58 622.19 869.24 611.24 C 882.91 600.28 900.54 599.57 908.62 609.64 Z" fill="#0cbc8b" fill-rule="nonzero" group-id="30" node-id="429" stroke="none" target-height="59.840088" target-width="65.65735" target-x="851.04706" target-y="599.56555"></path></g><g node-id="774"><g node-id="816"><path d="M 908.62 609.64 C 916.70 619.72 912.17 636.78 898.51 647.73 C 884.84 658.69 867.21 659.41 859.13 649.33 C 851.05 639.25 855.58 622.19 869.24 611.24 C 882.91 600.28 900.54 599.57 908.62 609.64 Z" fill="#ffffff" fill-opacity="0.2" fill-rule="nonzero" group-id="31,73" node-id="436" stroke="none" target-height="59.840088" target-width="65.65735" target-x="851.04706" target-y="599.56555"></path></g></g><path d="M 863.00 652.00 C 862.90 652.00 862.81 651.96 862.74 651.90 C 862.66 651.83 862.60 651.73 862.59 651.62 C 862.58 651.51 862.62 651.40 862.69 651.32 L 901.69 604.32 C 901.84 604.15 902.10 604.12 902.27 604.27 C 902.44 604.42 902.47 604.68 902.32 604.85 L 863.32 651.85 C 863.24 651.95 863.12 652.00 863.00 652.00 Z" fill="#ffffff" fill-rule="nonzero" node-id="440" stroke="none" target-height="47.87726" target-width="39.88159" target-x="862.5848" target-y="604.12366"></path><path d="M 923.34 761.85 C 923.25 761.85 923.16 761.83 923.07 761.80 C 922.67 761.65 922.44 761.22 922.56 760.80 L 937.20 718.73 C 938.06 716.20 940.15 714.29 942.74 713.65 C 945.33 713.02 948.07 713.75 950.00 715.59 L 957.73 722.98 C 958.06 723.29 958.07 723.82 957.75 724.14 C 957.44 724.47 956.92 724.48 956.59 724.17 L 948.86 716.78 C 947.34 715.33 945.19 714.74 943.14 715.24 C 941.10 715.73 939.45 717.23 938.76 719.22 L 924.12 761.30 C 924.00 761.63 923.69 761.85 923.34 761.85 Z" fill="#494949" fill-rule="nonzero" node-id="442" stroke="none" target-height="48.83136" target-width="35.625122" target-x="922.4447" target-y="713.01855"></path><g node-id="775"><path d="M 978.00 706.95 C 988.87 720.69 989.47 738.32 979.34 746.34 C 969.21 754.36 952.19 749.72 941.31 735.98 C 930.44 722.25 929.84 704.61 939.97 696.60 C 950.10 688.58 967.12 693.22 978.00 706.95 Z" fill="#0cbc8b" fill-rule="nonzero" group-id="32" node-id="446" stroke="none" target-height="65.77875" target-width="59.629395" target-x="929.84015" target-y="688.57825"></path></g><path d="M 908.20 769.24 C 907.82 769.24 907.49 768.97 907.40 768.60 L 882.84 665.94 C 882.50 664.51 881.39 663.40 879.96 663.05 C 878.54 662.70 877.04 663.18 876.08 664.29 L 868.51 673.00 C 868.21 673.34 867.69 673.38 867.35 673.08 C 867.01 672.78 866.97 672.26 867.27 671.92 L 874.83 663.17 C 876.20 661.60 878.33 660.92 880.36 661.41 C 882.38 661.91 883.96 663.49 884.45 665.52 L 909.00 768.22 C 909.05 768.43 909.02 768.66 908.91 768.85 C 908.79 769.04 908.60 769.17 908.39 769.22 C 908.33 769.23 908.26 769.23 908.20 769.22 Z" fill="#494949" fill-rule="nonzero" node-id="449" stroke="none" target-height="108.32263" target-width="42.082397" target-x="866.97174" target-y="660.9174"></path><g node-id="776"><path d="M 881.49 660.58 C 894.22 662.79 902.12 678.56 899.13 695.83 C 896.15 713.09 883.41 725.30 870.68 723.10 C 857.95 720.90 850.05 705.12 853.04 687.86 C 856.02 670.59 868.76 658.38 881.49 660.58 Z" fill="#0cbc8b" fill-rule="nonzero" group-id="33" node-id="453" stroke="none" target-height="66.914246" target-width="52.065674" target-x="850.0522" target-y="658.3832"></path></g><path d="M 914.85 771.92 L 914.74 771.92 C 914.52 771.90 914.31 771.79 914.17 771.62 C 914.03 771.45 913.97 771.22 914.00 771.00 L 929.68 643.69 C 930.03 640.86 932.01 638.50 934.73 637.65 C 937.46 636.81 940.42 637.64 942.31 639.78 L 960.24 660.08 C 960.49 660.43 960.43 660.90 960.11 661.18 C 959.79 661.46 959.31 661.46 959.00 661.17 L 941.08 640.87 C 939.62 639.22 937.33 638.57 935.23 639.22 C 933.12 639.87 931.59 641.69 931.31 643.87 L 915.66 771.20 C 915.61 771.61 915.26 771.92 914.85 771.92 Z" fill="#494949" fill-rule="nonzero" node-id="456" stroke="none" target-height="135.1106" target-width="46.516785" target-x="913.969" target-y="636.8094"></path><g node-id="777"><path d="M 962.21 635.56 C 977.54 644.04 984.90 660.08 978.65 671.38 C 972.40 682.68 954.90 684.97 939.57 676.49 C 924.24 668.01 916.88 651.98 923.14 640.67 C 929.39 629.37 946.88 627.08 962.21 635.56 Z" fill="#0cbc8b" fill-rule="nonzero" group-id="34" node-id="460" stroke="none" target-height="57.894165" target-width="68.01831" target-x="916.8833" target-y="627.07825"></path></g><g node-id="778"><g node-id="817"><path d="M 978.00 706.95 C 988.87 720.69 989.47 738.32 979.34 746.34 C 969.21 754.36 952.19 749.72 941.31 735.98 C 930.44 722.25 929.84 704.61 939.97 696.60 C 950.10 688.58 967.12 693.22 978.00 706.95 Z" fill="#ffffff" fill-opacity="0.2" fill-rule="nonzero" group-id="35,74" node-id="467" stroke="none" target-height="65.77875" target-width="59.629395" target-x="929.84015" target-y="688.57825"></path></g></g><g node-id="779"><g node-id="818"><path d="M 881.49 660.58 C 894.22 662.79 902.12 678.56 899.13 695.83 C 896.15 713.09 883.41 725.30 870.68 723.10 C 857.95 720.90 850.05 705.12 853.04 687.86 C 856.02 670.59 868.76 658.38 881.49 660.58 Z" fill="#ffffff" fill-opacity="0.5" fill-rule="nonzero" group-id="36,75" node-id="475" stroke="none" target-height="66.914246" target-width="52.065674" target-x="850.0522" target-y="658.3832"></path></g></g><g node-id="780"><g node-id="819"><path d="M 962.21 635.56 C 977.54 644.04 984.90 660.08 978.65 671.38 C 972.40 682.68 954.90 684.97 939.57 676.49 C 924.24 668.01 916.88 651.98 923.14 640.67 C 929.39 629.37 946.88 627.08 962.21 635.56 Z" fill="#ffffff" fill-opacity="0.5" fill-rule="nonzero" group-id="37,76" node-id="483" stroke="none" target-height="57.894165" target-width="68.01831" target-x="916.8833" target-y="627.07825"></path></g></g><path d="M 934.90 879.93 L 894.79 879.93 L 888.14 751.61 L 941.55 751.61 L 934.90 879.93 Z" fill="#292a2e" fill-rule="nonzero" node-id="487" stroke="none" target-height="128.31995" target-width="53.409973" target-x="888.14" target-y="751.61005"></path><g node-id="781"><path d="M 934.90 879.93 L 894.79 879.93 L 888.14 751.61 L 941.55 751.61 L 934.90 879.93 Z" fill="#ffffff" fill-opacity="0.3" fill-rule="nonzero" group-id="38" node-id="491" stroke="none" target-height="128.31995" target-width="53.409973" target-x="888.14" target-y="751.61005"></path></g><path d="M 979.33 746.68 C 979.21 746.68 979.09 746.63 979.01 746.53 L 939.64 696.79 C 939.50 696.61 939.53 696.35 939.71 696.21 C 939.89 696.07 940.15 696.10 940.29 696.28 L 979.65 746.00 C 979.72 746.08 979.76 746.19 979.75 746.30 C 979.73 746.41 979.68 746.51 979.59 746.58 C 979.51 746.63 979.42 746.66 979.33 746.66 Z" fill="#ffffff" fill-rule="nonzero" node-id="494" stroke="none" target-height="50.611755" target-width="40.25775" target-x="939.4991" target-y="696.06915"></path><path d="M 976.00 675.34 C 975.91 675.34 975.82 675.31 975.75 675.26 L 925.40 638.47 C 925.22 638.34 925.18 638.08 925.31 637.90 C 925.45 637.72 925.70 637.68 925.89 637.81 L 976.27 674.60 C 976.45 674.73 976.49 674.99 976.36 675.17 C 976.28 675.27 976.16 675.34 976.03 675.34 Z" fill="#ffffff" fill-rule="nonzero" node-id="496" stroke="none" target-height="37.660156" target-width="51.312805" target-x="925.1786" target-y="637.68286"></path><path d="M 868.64 722.58 L 868.54 722.58 C 868.32 722.52 868.19 722.30 868.24 722.08 L 884.24 661.99 C 884.27 661.88 884.34 661.79 884.43 661.74 C 884.53 661.68 884.64 661.67 884.75 661.70 C 884.97 661.76 885.10 661.98 885.04 662.20 L 869.04 722.29 C 868.99 722.47 868.83 722.59 868.64 722.60 Z" fill="#ffffff" fill-rule="nonzero" node-id="498" stroke="none" target-height="60.93048" target-width="16.908142" target-x="868.18915" target-y="661.66943"></path><path d="M 305.78 579.50 L 305.78 743.60 L 199.28 743.60 C 188.33 743.60 177.83 739.25 170.08 731.50 C 162.34 723.76 157.99 713.25 158.00 702.30 L 158.00 600.77 L 170.74 600.77 C 182.63 600.76 192.41 591.38 192.91 579.50 Z" fill="#f4f4f4" fill-rule="nonzero" node-id="500" stroke="none" target-height="164.09998" target-width="147.78531" target-x="157.99469" target-y="579.5"></path><g node-id="782"><path d="M 305.78 579.50 L 305.78 743.60 L 199.28 743.60 C 188.33 743.60 177.83 739.25 170.08 731.50 C 162.34 723.76 157.99 713.25 158.00 702.30 L 158.00 600.77 L 170.74 600.77 C 182.63 600.76 192.41 591.38 192.91 579.50 Z" fill="#292a2e" fill-opacity="0.03" fill-rule="nonzero" group-id="39" node-id="504" stroke="none" target-height="164.09998" target-width="147.78531" target-x="157.99469" target-y="579.5"></path></g><path d="M 341.55 579.50 L 341.55 743.60 L 199.27 743.60 C 188.32 743.60 177.82 739.24 170.08 731.50 C 162.34 723.75 157.99 713.25 158.00 702.30 L 158.00 600.77 L 170.74 600.77 C 179.03 600.77 186.63 596.14 190.43 588.77 C 191.94 585.89 192.78 582.72 192.90 579.47 Z" fill="#f4f4f4" fill-rule="nonzero" node-id="507" stroke="none" target-height="164.13" target-width="183.5553" target-x="157.99469" target-y="579.47"></path><g node-id="783"><path d="M 334.31 588.80 L 334.31 626.94 L 158.00 626.94 L 158.00 600.77 L 170.74 600.77 C 179.03 600.77 186.63 596.14 190.43 588.77 Z" fill="#ffffff" fill-opacity="0.7" fill-rule="nonzero" group-id="40" node-id="511" stroke="none" target-height="38.169983" target-width="176.31" target-x="158" target-y="588.77"></path></g><g node-id="784"><path d="M 157.97 636.27 L 334.31 636.27 L 334.31 674.41 L 157.97 674.41 Z" fill="#ffffff" fill-opacity="0.7" fill-rule="nonzero" group-id="41" node-id="516" stroke="none" target-height="38.140015" target-width="176.34" target-x="157.97" target-y="636.27"></path></g><g node-id="785"><path d="M 334.31 683.76 L 334.31 721.90 L 162.91 721.90 C 159.67 715.88 157.98 709.14 158.00 702.30 L 158.00 683.76 Z" fill="#ffffff" fill-opacity="0.7" fill-rule="nonzero" group-id="42" node-id="521" stroke="none" target-height="38.140015" target-width="176.33023" target-x="157.97977" target-y="683.76"></path></g><g node-id="786"><g node-id="820"><path d="M 245.56 602.50 C 246.97 602.64 248.26 603.34 249.16 604.43 C 250.06 605.53 250.49 606.93 250.35 608.34 C 250.21 609.75 249.51 611.05 248.42 611.95 C 247.32 612.84 245.92 613.27 244.51 613.13 C 243.10 612.99 241.80 612.30 240.90 611.20 C 240.01 610.11 239.58 608.70 239.72 607.29 C 239.86 605.88 240.55 604.58 241.65 603.69 C 242.74 602.79 244.15 602.36 245.56 602.50 Z" fill="#292a2e" fill-opacity="0.05" fill-rule="nonzero" group-id="43,77" node-id="528" stroke="none" target-height="10.906982" target-width="10.907043" target-x="239.57889" target-y="602.3627"></path></g></g><g node-id="787"><g node-id="821"><path d="M 245.45 650.09 C 246.86 650.19 248.18 650.84 249.10 651.91 C 250.03 652.98 250.50 654.38 250.40 655.79 C 250.30 657.20 249.64 658.52 248.57 659.45 C 247.50 660.37 246.10 660.84 244.69 660.74 C 243.28 660.64 241.96 659.98 241.04 658.91 C 240.11 657.84 239.64 656.45 239.74 655.03 C 239.84 653.62 240.50 652.30 241.57 651.38 C 242.64 650.45 244.04 649.98 245.45 650.09 Z" fill="#292a2e" fill-opacity="0.05" fill-rule="nonzero" group-id="44,78" node-id="536" stroke="none" target-height="10.854065" target-width="10.854187" target-x="239.64261" target-y="649.98456"></path></g></g><g node-id="788"><g node-id="822"><path d="M 245.45 697.56 C 246.86 697.67 248.18 698.32 249.10 699.39 C 250.03 700.46 250.50 701.86 250.40 703.27 C 250.30 704.68 249.64 706.00 248.57 706.93 C 247.50 707.85 246.10 708.32 244.69 708.22 C 243.28 708.12 241.96 707.46 241.04 706.39 C 240.11 705.32 239.64 703.93 239.74 702.51 C 239.84 701.10 240.50 699.78 241.57 698.86 C 242.64 697.93 244.04 697.46 245.45 697.56 Z" fill="#292a2e" fill-opacity="0.05" fill-rule="nonzero" group-id="45,79" node-id="544" stroke="none" target-height="10.854065" target-width="10.854187" target-x="239.64288" target-y="697.4645"></path></g></g><g node-id="789"><path d="M 334.31 732.30 L 334.31 743.60 L 199.31 743.60 C 188.75 743.61 178.59 739.56 170.93 732.30 Z" fill="#ffffff" fill-opacity="0.7" fill-rule="nonzero" group-id="46" node-id="550" stroke="none" target-height="11.307983" target-width="163.38" target-x="170.93" target-y="732.3"></path></g><path d="M 675.58 259.75 L 804.98 259.75 L 804.98 354.48 L 675.58 354.48 Z" fill="#f4f4f4" fill-rule="nonzero" node-id="553" stroke="none" target-height="94.73001" target-width="129.39996" target-x="675.58" target-y="259.75"></path><path d="M 804.98 259.75 L 809.18 259.75 L 809.18 354.48 L 804.98 354.48 Z" fill="#f4f4f4" fill-rule="nonzero" node-id="555" stroke="none" target-height="94.73001" target-width="4.199951" target-x="804.98" target-y="259.75"></path><g node-id="790"><path d="M 804.98 259.75 L 809.18 259.75 L 809.18 354.48 L 804.98 354.48 Z" fill="#292a2e" fill-opacity="0.05" fill-rule="nonzero" group-id="47" node-id="559" stroke="none" target-height="94.73001" target-width="4.199951" target-x="804.98" target-y="259.75"></path></g><g node-id="791"><path d="M 699.15 259.75 L 781.40 259.75 L 781.40 323.80 L 699.15 323.80 Z" fill="#292a2e" fill-opacity="0.05" fill-rule="nonzero" group-id="48" node-id="564" stroke="none" target-height="64.04999" target-width="82.25006" target-x="699.15" target-y="259.75"></path></g><g node-id="792"><path d="M 777.12 259.75 L 781.40 259.75 L 781.40 323.80 L 777.12 323.80 Z" fill="#292a2e" fill-opacity="0.03" fill-rule="nonzero" group-id="49" node-id="569" stroke="none" target-height="64.04999" target-width="4.2800903" target-x="777.12" target-y="259.75"></path></g><path d="M 804.98 395.90 L 866.41 395.90 L 866.41 502.70 L 804.98 502.70 Z" fill="#f4f4f4" fill-rule="nonzero" node-id="572" stroke="none" target-height="106.80005" target-width="61.430054" target-x="804.98" target-y="395.9"></path><g node-id="793"><path d="M 824.26 415.36 L 866.41 415.36 L 866.41 483.25 L 824.26 483.25 Z" fill="#292a2e" fill-opacity="0.05" fill-rule="nonzero" group-id="50" node-id="576" stroke="none" target-height="67.890015" target-width="42.150024" target-x="824.26" target-y="415.36"></path></g><path d="M 411.08 259.75 L 411.08 535.45 L 192.89 535.45 L 192.89 424.76 C 192.89 412.51 182.96 402.58 170.71 402.58 L 158.00 402.58 L 158.00 301.06 C 158.01 278.25 176.50 259.76 199.31 259.75 Z" fill="#f4f4f4" fill-rule="nonzero" node-id="579" stroke="none" target-height="275.7" target-width="253.07996" target-x="158" target-y="259.75"></path><g node-id="794"><path d="M 386.41 482.37 L 386.41 535.45 L 192.89 535.45 L 192.89 424.76 C 192.89 412.51 182.96 402.58 170.71 402.58 L 158.00 402.58 L 158.00 334.73 L 220.60 334.73 L 220.60 388.00 L 337.00 388.00 L 337.00 482.36 Z" fill="#292a2e" fill-opacity="0.05" fill-rule="nonzero" group-id="51" node-id="583" stroke="none" target-height="200.72" target-width="228.41" target-x="158" target-y="334.73"></path></g><g node-id="795"><g node-id="823"><path d="M 157.97 344.69 L 210.92 344.69 L 210.92 354.65 L 157.97 354.65 Z" fill="#fffffa" fill-opacity="0.34" fill-rule="nonzero" group-id="52,80" node-id="589" stroke="none" target-height="9.959991" target-width="52.949997" target-x="157.97" target-y="344.69"></path></g><g node-id="824"><path d="M 157.97 365.32 L 210.92 365.32 L 210.92 375.28 L 157.97 375.28 Z" fill="#fffffa" fill-opacity="0.34" fill-rule="nonzero" group-id="52,81" node-id="594" stroke="none" target-height="9.960022" target-width="52.949997" target-x="157.97" target-y="365.31998"></path></g><path d="M 157.97 385.96 L 210.92 385.96 L 210.92 395.92 L 157.97 395.92 Z" fill="#fffffa" fill-opacity="0.34" fill-rule="nonzero" group-id="52,82" node-id="599" stroke="none" target-height="9.959991" target-width="52.949997" target-x="157.97" target-y="385.96"></path></g><path d="M 411.08 358.20 L 411.08 364.03 L 333.25 364.03 L 333.25 535.45 L 327.42 535.45 L 327.42 364.03 L 157.97 364.03 L 157.97 358.20 L 327.42 358.20 L 327.42 259.75 L 333.25 259.75 L 333.25 358.20 L 411.08 358.20 Z" fill="#ffffff" fill-rule="nonzero" node-id="603" stroke="none" target-height="275.7" target-width="253.10995" target-x="157.97" target-y="259.75"></path><path d="M 192.89 535.03 L 425.05 535.03 L 425.05 546.69 L 192.89 546.69 Z" fill="#f4f4f4" fill-rule="nonzero" node-id="605" stroke="none" target-height="11.659973" target-width="232.15999" target-x="192.89" target-y="535.03"></path><g node-id="796"><path d="M 192.89 535.03 L 425.05 535.03 L 425.05 546.69 L 192.89 546.69 Z" fill="#292a2e" fill-opacity="0.1" fill-rule="nonzero" group-id="53" node-id="609" stroke="none" target-height="11.659973" target-width="232.15999" target-x="192.89" target-y="535.03"></path></g><path d="M 866.41 301.06 L 866.41 702.30 C 866.40 725.11 847.91 743.60 825.10 743.60 L 199.28 743.60 C 176.48 743.58 158.01 725.10 158.00 702.30 L 158.00 600.77 L 170.74 600.77 C 176.62 600.77 182.26 598.44 186.42 594.28 C 190.58 590.12 192.92 584.48 192.92 578.60 L 192.92 424.76 C 192.92 412.51 182.99 402.58 170.74 402.58 L 158.00 402.58 L 158.00 301.06 C 158.01 278.25 176.50 259.76 199.31 259.75 L 825.10 259.75 C 847.91 259.76 866.40 278.25 866.41 301.06 Z" fill="none" node-id="612" stroke="none" target-height="483.84998" target-width="708.41003" target-x="158" target-y="259.75"></path><path d="M 543.60 502.42 L 368.33 585.88 L 367.86 419.76 L 543.60 335.82 L 543.60 502.42" fill="#367cff" fill-rule="nonzero" node-id="614" stroke="none" target-height="250.06" target-width="175.73999" target-x="367.86" target-y="335.82"></path><g node-id="797"><path d="M 543.60 502.42 L 368.33 585.88 L 367.86 419.76 L 543.60 335.82 L 543.60 502.42" fill="#ffffff" fill-opacity="0.58" fill-rule="nonzero" group-id="54" node-id="618" stroke="none" target-height="250.06" target-width="175.73999" target-x="367.86" target-y="335.82"></path></g><path d="M 543.60 502.41 L 657.46 585.88 L 657.93 419.76 L 543.60 335.82 L 543.60 502.41" fill="#367cff" fill-rule="nonzero" node-id="621" stroke="none" target-height="250.06" target-width="114.33002" target-x="543.6" target-y="335.82"></path><g node-id="798"><path d="M 543.60 502.41 L 657.46 585.88 L 657.93 419.76 L 543.60 335.82 L 543.60 502.41" fill="#ffffff" fill-opacity="0.88" fill-rule="nonzero" group-id="55" node-id="625" stroke="none" target-height="250.06" target-width="114.33002" target-x="543.6" target-y="335.82"></path></g><path d="M 483.41 671.79 L 366.62 586.00 L 366.62 585.38 L 367.10 416.83 L 483.41 502.10 Z M 369.09 584.79 L 480.94 666.91 L 480.94 503.38 L 369.55 421.72 L 369.09 584.79 Z" fill="#292a2e" fill-rule="nonzero" node-id="628" stroke="none" target-height="254.95999" target-width="116.79004" target-x="366.61996" target-y="416.83"></path><path d="M 480.94 671.30 L 480.94 502.00 L 658.69 417.35 L 659.17 586.21 L 658.46 586.54 L 480.94 671.30 Z M 483.41 503.54 L 483.41 667.39 L 656.69 584.63 L 656.23 421.24 Z" fill="#292a2e" fill-rule="nonzero" node-id="630" stroke="none" target-height="253.94998" target-width="178.22998" target-x="480.94" target-y="417.35"></path><path d="M 367.10 587.83 L 366.62 419.00 L 544.84 333.89 L 544.84 503.20 L 367.10 587.83 Z M 369.10 420.54 L 369.57 583.92 L 542.38 501.63 L 542.38 337.78 L 369.09 420.54 Z" fill="#292a2e" fill-rule="nonzero" node-id="632" stroke="none" target-height="253.94" target-width="178.22006" target-x="366.61996" target-y="333.89"></path><path d="M 658.69 588.31 L 542.37 503.00 L 542.37 333.38 L 659.17 419.14 L 659.17 419.76 L 658.70 588.31 Z M 544.84 501.79 L 656.23 583.45 L 656.69 420.38 L 544.84 338.26 Z" fill="#292a2e" fill-rule="nonzero" node-id="634" stroke="none" target-height="254.93" target-width="116.79999" target-x="542.37" target-y="333.38"></path><path d="M 488.36 502.75 C 488.36 506.16 485.59 508.93 482.18 508.93 C 478.77 508.93 476.00 506.16 476.00 502.75 C 476.00 499.34 478.77 496.57 482.18 496.57 C 485.59 496.57 488.36 499.34 488.36 502.75 Z" fill="#367cff" fill-rule="nonzero" node-id="636" stroke="none" target-height="12.359985" target-width="12.359985" target-x="476" target-y="496.57"></path><path d="M 549.78 335.82 C 549.78 339.23 547.01 342.00 543.60 342.00 C 540.19 342.00 537.42 339.23 537.42 335.82 C 537.42 332.41 540.19 329.64 543.60 329.64 C 547.01 329.64 549.78 332.41 549.78 335.82 Z" fill="#367cff" fill-rule="nonzero" node-id="638" stroke="none" target-height="12.359985" target-width="12.359985" target-x="537.42" target-y="329.64"></path><path d="M 488.36 667.53 C 488.36 670.94 485.59 673.71 482.18 673.71 C 478.77 673.71 476.00 670.94 476.00 667.53 C 476.00 664.12 478.77 661.35 482.18 661.35 C 485.59 661.35 488.36 664.12 488.36 667.53 Z" fill="#367cff" fill-rule="nonzero" node-id="640" stroke="none" target-height="12.359985" target-width="12.359985" target-x="476" target-y="661.35004"></path><path d="M 664.11 419.29 C 664.11 422.70 661.34 425.47 657.93 425.47 C 654.52 425.47 651.75 422.70 651.75 419.29 C 651.75 415.88 654.52 413.11 657.93 413.11 C 661.34 413.11 664.11 415.88 664.11 419.29 Z" fill="#367cff" fill-rule="nonzero" node-id="642" stroke="none" target-height="12.359985" target-width="12.359985" target-x="651.75" target-y="413.11002"></path><path d="M 374.03 419.29 C 374.03 422.70 371.26 425.47 367.85 425.47 C 364.44 425.47 361.67 422.70 361.67 419.29 C 361.67 415.88 364.44 413.11 367.85 413.11 C 371.26 413.11 374.03 415.88 374.03 419.29 Z" fill="#367cff" fill-rule="nonzero" node-id="644" stroke="none" target-height="12.359985" target-width="12.359985" target-x="361.67" target-y="413.11002"></path><path d="M 664.11 587.55 C 664.11 590.96 661.34 593.73 657.93 593.73 C 654.52 593.73 651.75 590.96 651.75 587.55 C 651.75 584.14 654.52 581.37 657.93 581.37 C 661.34 581.37 664.11 584.14 664.11 587.55 Z" fill="#367cff" fill-rule="nonzero" node-id="646" stroke="none" target-height="12.359985" target-width="12.359985" target-x="651.75" target-y="581.37"></path><path d="M 374.03 587.55 C 374.03 590.96 371.26 593.73 367.85 593.73 C 364.44 593.73 361.67 590.96 361.67 587.55 C 361.67 584.14 364.44 581.37 367.85 581.37 C 371.26 581.37 374.03 584.14 374.03 587.55 Z" fill="#367cff" fill-rule="nonzero" node-id="648" stroke="none" target-height="12.359985" target-width="12.359985" target-x="361.67" target-y="581.37"></path><path d="M 549.78 502.75 C 549.78 506.16 547.01 508.93 543.60 508.93 C 540.19 508.93 537.42 506.16 537.42 502.75 C 537.42 499.34 540.19 496.57 543.60 496.57 C 547.01 496.57 549.78 499.34 549.78 502.75 Z" fill="#367cff" fill-rule="nonzero" node-id="650" stroke="none" target-height="12.359985" target-width="12.359985" target-x="537.42" target-y="496.57"></path><path d="M 562.07 391.13 L 550.07 410.92 C 549.51 411.85 549.76 413.07 550.66 413.69 L 570.47 427.30 C 571.08 427.74 571.87 427.81 572.54 427.50 C 573.22 427.18 573.67 426.52 573.73 425.78 C 573.78 425.04 573.43 424.32 572.81 423.91 L 556.81 412.91 C 564.72 410.52 584.39 407.26 602.74 425.61 C 625.87 448.74 613.06 475.47 612.50 476.61 C 612.15 477.27 612.19 478.07 612.60 478.70 C 613.01 479.32 613.72 479.68 614.47 479.62 C 615.22 479.57 615.87 479.12 616.19 478.44 C 616.34 478.14 630.93 447.97 605.65 422.69 C 586.41 403.45 565.22 406.36 556.10 408.89 L 565.58 393.25 C 566.07 392.44 565.94 391.40 565.27 390.73 C 565.16 390.61 565.02 390.50 564.88 390.42 C 563.91 389.83 562.64 390.14 562.05 391.11 Z" fill="#0cbc8b" fill-rule="nonzero" node-id="652" stroke="none" target-height="89.84708" target-width="81.42456" target-x="549.50543" target-y="389.82922"></path><g node-id="799"><path d="M 593.27 405.05 L 604.47 414.05 L 603.55 412.31 C 602.96 411.12 603.40 409.68 604.55 409.02 C 605.13 408.70 605.82 408.64 606.45 408.84 C 607.08 409.04 607.60 409.49 607.89 410.09 L 615.07 425.00 C 616.96 428.91 615.40 433.61 611.54 435.60 L 611.54 435.60 C 607.13 437.89 601.76 437.26 598.00 434.00 L 589.68 426.84 C 588.77 426.09 588.52 424.81 589.07 423.77 C 589.59 422.85 590.65 422.37 591.68 422.59 C 591.67 422.55 591.67 422.52 591.68 422.48 C 591.73 422.42 591.80 422.39 591.87 422.39 L 590.33 421.07 C 589.36 420.28 589.13 418.89 589.79 417.83 C 590.47 416.74 591.88 416.38 593.00 417.00 C 593.00 417.00 593.00 417.00 593.00 416.93 L 592.37 416.39 C 591.52 415.62 591.27 414.38 591.75 413.34 C 592.38 412.18 593.82 411.73 594.99 412.34 L 594.99 412.34 L 590.28 408.57 C 589.79 408.18 589.49 407.60 589.44 406.98 C 589.39 406.35 589.59 405.74 590.01 405.27 C 590.87 404.37 592.28 404.29 593.23 405.09 Z" fill="#ff9e85" fill-rule="nonzero" group-id="56" node-id="655" stroke="none" target-height="33.59784" target-width="28.447815" target-x="588.51624" target-y="404.2929"></path><g node-id="826"><path d="M 595.00 412.61 L 595.06 412.67 L 599.67 416.29 C 599.76 416.38 599.90 416.38 599.99 416.29 C 600.08 416.20 600.08 416.06 599.99 415.97 L 595.38 412.35 C 595.29 412.26 595.15 412.26 595.06 412.35 C 595.01 412.43 595.01 412.53 595.06 412.61 Z" fill="#0c0c0c" fill-opacity="0.2" fill-rule="nonzero" group-id="56,83" node-id="658" stroke="none" target-height="4.112732" target-width="5.076355" target-x="595" target-y="412.26364"></path></g><g node-id="827"><path d="M 593.00 417.10 C 593.02 417.10 593.03 417.10 593.05 417.10 L 596.66 419.97 C 596.75 420.06 596.89 420.06 596.98 419.97 C 597.02 419.93 597.05 419.87 597.05 419.81 C 597.05 419.75 597.02 419.69 596.98 419.65 L 593.37 416.78 C 593.33 416.74 593.27 416.71 593.22 416.71 C 593.16 416.71 593.10 416.74 593.06 416.78 C 593.00 416.81 592.97 416.86 592.95 416.93 C 592.94 416.99 592.96 417.05 593.00 417.10 Z" fill="#0c0c0c" fill-opacity="0.2" fill-rule="nonzero" group-id="56,84" node-id="662" stroke="none" target-height="3.344696" target-width="4.1066284" target-x="592.9424" target-y="416.71167"></path></g><path d="M 591.75 422.72 L 591.75 422.78 L 593.49 424.09 C 593.55 424.16 593.65 424.19 593.74 424.16 C 593.83 424.13 593.89 424.04 593.89 423.95 C 593.90 423.86 593.85 423.77 593.76 423.73 L 592.03 422.42 C 591.94 422.36 591.83 422.37 591.75 422.44 C 591.67 422.51 591.65 422.63 591.70 422.72 Z" fill="#0c0c0c" fill-opacity="0.2" fill-rule="nonzero" group-id="56,85" node-id="666" stroke="none" target-height="1.8248596" target-width="2.2471924" target-x="591.6504" target-y="422.3618"></path></g><path d="M 723.07 469.71 L 664.07 492.21 C 658.37 494.42 651.90 493.17 647.43 489.00 L 595.09 439.66 L 616.94 416.48 L 661.94 458.92 L 711.53 440.00 L 723.07 469.70 Z" fill="#367cff" fill-rule="nonzero" node-id="670" stroke="none" target-height="77.941345" target-width="127.97998" target-x="595.09" target-y="416.48"></path><path d="M 782.90 793.59 C 782.90 793.59 780.23 807.39 767.31 808.16 C 754.39 808.93 757.18 819.23 757.18 819.23 L 806.58 819.23 L 806.58 794.55 Z" fill="#367cff" fill-rule="nonzero" node-id="672" stroke="none" target-height="25.639954" target-width="52.190002" target-x="754.38995" target-y="793.59"></path><path d="M 798.13 541.74 C 798.13 541.74 798.00 537.59 798.00 547.00 C 798.12 582.12 798.73 622.23 800.22 645.70 C 802.62 683.44 808.75 802.40 808.75 802.40 L 776.29 802.13 L 744.84 540.31 L 798.14 541.74 Z" fill="#262626" fill-rule="nonzero" node-id="674" stroke="none" target-height="264.81" target-width="63.910095" target-x="744.83997" target-y="537.59"></path><path d="M 761.48 583.15 C 761.48 583.15 760.13 608.63 759.88 614.62 C 759.31 628.45 759.11 642.78 759.11 659.02 L 754.00 616.44 C 754.00 616.44 757.74 603.10 761.49 583.15 Z" fill="#0a0a0a" fill-rule="nonzero" node-id="676" stroke="none" target-height="75.869995" target-width="7.48999" target-x="754" target-y="583.15"></path><path d="M 725.11 793.59 C 725.11 793.59 722.45 807.39 709.52 808.16 C 696.59 808.93 699.40 819.23 699.40 819.23 L 748.79 819.23 L 748.79 794.55 Z" fill="#367cff" fill-rule="nonzero" node-id="678" stroke="none" target-height="25.639954" target-width="52.19995" target-x="696.59" target-y="793.59"></path><path d="M 709.39 544.47 C 709.39 544.47 706.52 664.47 706.94 670.35 L 719.00 801.49 L 750.92 802.08 L 747.81 665.61 C 747.81 665.61 750.00 628.00 759.11 593.00 C 763.76 575.06 766.57 556.68 767.47 538.17 L 767.47 538.17 L 709.39 544.46 Z" fill="#262626" fill-rule="nonzero" node-id="680" stroke="none" target-height="263.91003" target-width="60.94995" target-x="706.52" target-y="538.17"></path><path d="M 798.49 541.74 L 798.59 541.74 C 798.59 541.74 798.52 539.70 798.49 541.74 Z" fill="#333333" fill-rule="nonzero" node-id="682" stroke="none" target-height="2.039978" target-width="0.099975586" target-x="798.49" target-y="539.7"></path><path d="M 704.82 477.85 C 705.49 485.71 708.75 534.78 709.39 544.47 L 798.10 544.47 C 798.60 535.73 800.85 497.47 802.75 480.47 C 804.56 464.17 808.12 456.00 805.51 451.18 C 801.25 443.31 789.60 438.75 781.66 437.68 C 776.81 437.02 769.52 436.55 769.52 436.55 C 769.52 436.55 768.90 449.05 754.17 449.74 C 734.17 450.74 735.46 436.55 735.36 436.55 C 732.12 436.55 713.20 438.08 709.02 441.30 C 701.71 446.93 703.40 461.21 704.82 477.88 Z" fill="#367cff" fill-rule="nonzero" node-id="684" stroke="none" target-height="107.91998" target-width="106.40997" target-x="701.71" target-y="436.55"></path><path d="M 704.90 476.60 C 704.74 476.60 704.62 476.48 704.61 476.32 L 703.89 463.83 C 703.92 463.69 704.04 463.58 704.18 463.58 C 704.33 463.58 704.45 463.69 704.48 463.83 L 705.20 476.32 C 705.21 476.48 705.08 476.62 704.92 476.63 Z" fill="#0c0c0c" fill-rule="nonzero" node-id="686" stroke="none" target-height="13.045471" target-width="1.3158569" target-x="703.88995" target-y="463.58453"></path><path d="M 817.28 544.00 C 822.57 544.00 827.53 541.41 830.56 537.07 C 833.59 532.73 834.30 527.18 832.47 522.21 C 831.55 519.72 810.07 462.83 805.98 452.29 L 775.69 464.56 C 778.00 470.43 786.33 492.90 793.00 511.00 L 781.88 509.79 L 778.40 542.00 L 815.52 543.87 C 816.10 543.93 816.69 543.96 817.28 543.96 Z" fill="#367cff" fill-rule="nonzero" node-id="688" stroke="none" target-height="91.70996" target-width="58.611145" target-x="775.69" target-y="452.29004"></path><g node-id="800"><path d="M 727.23 437.00 C 727.32 437.00 729.88 446.62 749.86 445.12 C 763.69 444.12 767.06 434.67 767.38 434.67 C 765.83 434.44 764.30 434.11 762.80 433.67 C 760.48 432.60 758.80 430.50 758.24 428.01 C 757.62 425.62 757.30 416.42 757.30 411.81 L 736.00 416.57 C 736.30 421.77 738.37 433.85 731.10 435.98 C 729.89 436.34 728.58 436.66 727.21 436.98 Z" fill="#ff9e85" fill-rule="nonzero" group-id="57" node-id="691" stroke="none" target-height="34.809967" target-width="40.170044" target-x="727.20996" target-y="411.81"></path></g><path d="M 736.75 426.81 C 745.14 427.47 755.92 423.93 757.97 412.73 L 759.81 402.64 C 761.86 391.44 757.64 381.29 747.10 379.37 L 747.10 379.37 C 736.57 377.44 727.03 385.07 724.98 396.26 L 724.16 400.74 C 723.38 405.03 721.79 425.62 736.75 426.81 Z" fill="#ff9e85" fill-rule="nonzero" node-id="694" stroke="none" target-height="50.03" target-width="40.070007" target-x="721.79" target-y="377.44"></path><path d="M 729.00 416.53 C 730.50 408.96 731.19 403.92 731.11 398.59 C 729.55 395.56 729.16 392.06 730.03 388.76 C 728.57 389.68 726.85 390.12 725.13 390.01 C 725.13 390.01 728.63 375.94 740.56 372.15 C 742.75 371.29 748.35 370.22 755.78 371.24 C 762.10 372.10 777.68 376.83 779.91 394.37 L 779.91 394.37 C 779.98 394.95 781.48 411.12 784.46 418.87 C 788.46 429.30 794.10 432.54 793.96 444.56 C 793.75 460.00 765.31 462.10 748.15 461.00 C 730.99 459.90 721.42 454.20 721.30 443.05 C 721.16 430.56 725.96 431.72 728.98 416.58 Z" fill="#0a0a0a" fill-rule="nonzero" node-id="696" stroke="none" target-height="91.879974" target-width="72.94" target-x="721.16" target-y="370.22"></path><g node-id="801"><path d="M 797.81 544.46 L 799.99 480.77 L 800.58 480.79 L 798.40 544.48 Z" fill="#0c0c0c" fill-rule="nonzero" group-id="58" node-id="700" stroke="none" target-height="63.71295" target-width="2.7694092" target-x="797.8147" target-y="480.76868"></path></g><path d="M 791.78 104.12 L 878.87 104.12 L 878.87 170.31 L 791.78 170.31 Z" fill="#eef5ff" fill-rule="nonzero" node-id="703" stroke="none" target-height="66.189995" target-width="87.08984" target-x="791.7801" target-y="104.12"></path><path d="M 818.75 156.42 L 800.00 137.67 L 819.00 118.67 L 822.19 121.86 L 806.37 137.67 L 821.93 153.24 L 818.75 156.42 Z" fill="#054ddd" fill-rule="nonzero" node-id="705" stroke="none" target-height="37.75" target-width="22.190002" target-x="800" target-y="118.67"></path><path d="M 850.93 156.42 L 847.75 153.24 L 863.57 137.42 L 848.01 121.86 L 851.19 118.67 L 869.94 137.42 L 850.93 156.42 Z" fill="#054ddd" fill-rule="nonzero" node-id="707" stroke="none" target-height="37.75" target-width="22.190002" target-x="847.75" target-y="118.67"></path><g node-id="802"><path d="M 826.05 153.99 L 839.78 120.86 L 843.94 122.59 L 830.21 155.72 Z" fill="#054ddd" fill-rule="nonzero" group-id="59" node-id="711" stroke="none" target-height="34.854614" target-width="17.895142" target-x="826.04724" target-y="120.86078"></path></g><path d="M 791.78 96.41 L 878.87 96.41 L 878.87 104.12 L 791.78 104.12 Z" fill="#054ddd" fill-rule="nonzero" node-id="714" stroke="none" target-height="7.7100067" target-width="87.08984" target-x="791.7801" target-y="96.409996"></path><g node-id="803"><path d="M 165.39 82.00 L 285.68 82.00 C 294.01 82.00 300.76 88.75 300.76 97.08 L 300.76 147.23 C 300.76 155.56 294.01 162.31 285.68 162.31 L 165.39 162.31 C 157.06 162.31 150.31 155.56 150.31 147.23 L 150.31 97.08 C 150.31 88.75 157.06 82.00 165.39 82.00 Z" fill="#7689d6" fill-rule="nonzero" group-id="60" node-id="717" stroke="none" target-height="80.31" target-width="150.45001" target-x="150.31" target-y="82"></path><path d="M 150.31 147.23 C 150.31 155.56 157.06 162.31 165.39 162.31 L 171.55 162.31 L 171.55 183.84 L 200.61 162.31 L 285.68 162.31 C 294.01 162.31 300.76 155.56 300.76 147.23 L 300.76 97.08 C 244.00 153.87 150.31 147.23 150.31 147.23 Z" fill="#677cc1" fill-rule="nonzero" group-id="60" node-id="719" stroke="none" target-height="86.759995" target-width="150.45001" target-x="150.31" target-y="97.08"></path><path d="M 245.67 106.52 L 165.55 106.52 C 163.24 106.52 161.37 104.65 161.37 102.34 C 161.37 100.03 163.24 98.16 165.55 98.16 L 245.67 98.16 C 251.10 98.18 251.15 106.49 245.67 106.52 Z" fill="#ffffff" fill-rule="nonzero" group-id="60" node-id="721" stroke="none" target-height="8.359985" target-width="89.78" target-x="161.37" target-y="98.16"></path><path d="M 197.87 126.33 L 165.55 126.33 C 160.09 126.33 160.08 118.00 165.55 117.98 L 197.87 117.98 C 203.32 118.00 203.34 126.31 197.87 126.33 Z" fill="#ffffff" fill-rule="nonzero" group-id="60" node-id="723" stroke="none" target-height="8.349998" target-width="43.259995" target-x="160.08" target-y="117.98"></path><path d="M 285.52 126.33 L 217.29 126.33 C 215.06 126.22 213.31 124.38 213.31 122.16 C 213.31 119.93 215.06 118.09 217.29 117.98 L 285.52 117.98 C 291.00 118.00 291.00 126.31 285.52 126.33 Z" fill="#ffffff" fill-rule="nonzero" group-id="60" node-id="725" stroke="none" target-height="8.349998" target-width="77.68561" target-x="213.31439" target-y="117.98"></path><path d="M 231.62 146.15 L 165.55 146.15 C 160.11 146.15 160.07 137.82 165.55 137.80 L 231.62 137.80 C 237.06 137.82 237.10 146.13 231.62 146.15 Z" fill="#ffffff" fill-rule="nonzero" group-id="60" node-id="727" stroke="none" target-height="8.349991" target-width="77.03" target-x="160.07" target-y="137.8"></path><path d="M 278.64 82.00 C 177.24 82.00 153.64 98.91 150.31 101.89 C 149.06 91.89 154.46 82.08 165.39 82.00 Z" fill="#8a9edd" fill-rule="nonzero" group-id="60" node-id="729" stroke="none" target-height="19.89" target-width="129.58002" target-x="149.06" target-y="82"></path></g><path d="M 945.22 879.04 C 945.22 884.63 899.58 890.00 818.33 893.95 C 737.09 897.91 626.90 900.13 512.00 900.13 C 397.10 900.13 286.91 897.91 205.67 893.95 C 124.42 890.00 78.78 884.63 78.78 879.04 C 78.78 873.45 124.42 868.08 205.67 864.13 C 286.91 860.17 397.10 857.95 512.00 857.95 C 626.90 857.95 737.09 860.17 818.33 864.13 C 899.58 868.08 945.22 873.45 945.22 879.04 Z" fill="#d6e6f2" fill-rule="nonzero" node-id="732" stroke="none" target-height="42.180054" target-width="866.44025" target-x="78.779854" target-y="857.94995"></path><path d="M 208.29 760.67 L 283.29 760.67 C 284.67 760.67 285.78 761.78 285.78 763.16 L 285.78 836.69 C 285.78 838.07 284.67 839.18 283.29 839.18 L 208.29 839.18 C 207.74 839.18 207.29 838.73 207.29 838.18 L 207.29 761.67 C 207.29 761.12 207.74 760.67 208.29 760.67 Z" fill="#5fb7ff" fill-rule="nonzero" node-id="734" stroke="none" target-height="78.50995" target-width="78.490005" target-x="207.29" target-y="760.67"></path><path d="M 220.31 772.69 L 271.31 772.69 C 272.69 772.69 273.80 773.80 273.80 775.18 L 273.80 824.68 C 273.80 826.06 272.69 827.17 271.31 827.17 L 220.31 827.17 C 219.76 827.17 219.31 826.72 219.31 826.17 L 219.31 773.69 C 219.31 773.14 219.76 772.69 220.31 772.69 Z" fill="#e5f2f8" fill-rule="nonzero" node-id="736" stroke="none" target-height="54.47998" target-width="54.48999" target-x="219.31" target-y="772.69"></path><path d="M 159.30 872.37 L 197.23 872.37 C 227.08 872.28 251.25 848.11 251.34 818.26 L 251.34 736.77 L 105.19 736.77 L 105.19 818.26 C 105.28 848.11 129.45 872.28 159.30 872.37 Z" fill="#5fb7ff" fill-rule="nonzero" node-id="738" stroke="none" target-height="135.59998" target-width="146.15" target-x="105.19" target-y="736.77"></path><path d="M 134.45 736.77 L 139.43 736.77 L 139.43 807.92 L 134.45 807.92 Z" fill="#ffffff" fill-rule="nonzero" node-id="740" stroke="none" target-height="71.150024" target-width="4.9799957" target-x="134.45" target-y="736.77"></path><path d="M 123.87 788.08 L 149.39 788.08 L 149.39 823.30 L 123.87 823.30 Z" fill="#ffffff" fill-rule="nonzero" node-id="742" stroke="none" target-height="35.22003" target-width="25.519997" target-x="123.87" target-y="788.07996"></path></svg>